<mxfile host="app.diagrams.net" modified="2023-12-07T07:23:57.444Z" agent="Mozilla/5.0 (Windows NT 10.0; Win64; x64) AppleWebKit/537.36 (KHTML, like Gecko) Chrome/119.0.0.0 Safari/537.36 Edg/119.0.0.0" etag="lCLwvzBgyUYz2qg3f-Mw" version="22.1.7" type="device">
  <diagram name="第 1 页" id="S4RLvTUXmZmJnYKcLXPR">
    <mxGraphModel dx="4140" dy="1897" grid="1" gridSize="10" guides="1" tooltips="1" connect="1" arrows="1" fold="1" page="1" pageScale="1" pageWidth="827" pageHeight="1169" background="none" math="1" shadow="0">
      <root>
        <mxCell id="0" />
        <mxCell id="1" parent="0" />
        <mxCell id="dF-LqYd0qx0CR1oQy1YI-4" value="" style="edgeStyle=orthogonalEdgeStyle;rounded=0;orthogonalLoop=1;jettySize=auto;html=1;" parent="1" source="dF-LqYd0qx0CR1oQy1YI-1" target="dF-LqYd0qx0CR1oQy1YI-3" edge="1">
          <mxGeometry relative="1" as="geometry" />
        </mxCell>
        <mxCell id="dF-LqYd0qx0CR1oQy1YI-1" value="发布方" style="rounded=0;whiteSpace=wrap;html=1;" parent="1" vertex="1">
          <mxGeometry x="160" y="190" width="60" height="80" as="geometry" />
        </mxCell>
        <mxCell id="dF-LqYd0qx0CR1oQy1YI-2" value="接收方" style="rounded=0;whiteSpace=wrap;html=1;" parent="1" vertex="1">
          <mxGeometry x="530" y="190" width="60" height="80" as="geometry" />
        </mxCell>
        <mxCell id="dF-LqYd0qx0CR1oQy1YI-6" value="" style="edgeStyle=orthogonalEdgeStyle;rounded=0;orthogonalLoop=1;jettySize=auto;html=1;" parent="1" source="dF-LqYd0qx0CR1oQy1YI-3" target="dF-LqYd0qx0CR1oQy1YI-2" edge="1">
          <mxGeometry relative="1" as="geometry" />
        </mxCell>
        <mxCell id="dF-LqYd0qx0CR1oQy1YI-3" value="话题(topic)" style="ellipse;whiteSpace=wrap;html=1;aspect=fixed;" parent="1" vertex="1">
          <mxGeometry x="330" y="190" width="80" height="80" as="geometry" />
        </mxCell>
        <mxCell id="dF-LqYd0qx0CR1oQy1YI-7" value="发布相关数据" style="text;html=1;align=center;verticalAlign=middle;resizable=0;points=[];autosize=1;strokeColor=none;fillColor=none;" parent="1" vertex="1">
          <mxGeometry x="245" y="190" width="100" height="30" as="geometry" />
        </mxCell>
        <mxCell id="dF-LqYd0qx0CR1oQy1YI-8" value="接收话题的数据" style="text;html=1;align=center;verticalAlign=middle;resizable=0;points=[];autosize=1;strokeColor=none;fillColor=none;" parent="1" vertex="1">
          <mxGeometry x="415" y="188" width="110" height="30" as="geometry" />
        </mxCell>
        <mxCell id="zfy4MKYNoHMl2_ynxrHI-14" value="" style="edgeStyle=orthogonalEdgeStyle;rounded=0;orthogonalLoop=1;jettySize=auto;html=1;" edge="1" parent="1" source="zfy4MKYNoHMl2_ynxrHI-1" target="zfy4MKYNoHMl2_ynxrHI-2">
          <mxGeometry relative="1" as="geometry" />
        </mxCell>
        <mxCell id="zfy4MKYNoHMl2_ynxrHI-1" value="&lt;font style=&quot;font-size: 18px;&quot;&gt;比特流(0,1)&lt;/font&gt;" style="rounded=0;whiteSpace=wrap;html=1;" vertex="1" parent="1">
          <mxGeometry x="270" y="645" width="120" height="60" as="geometry" />
        </mxCell>
        <mxCell id="zfy4MKYNoHMl2_ynxrHI-15" value="" style="edgeStyle=orthogonalEdgeStyle;rounded=0;orthogonalLoop=1;jettySize=auto;html=1;" edge="1" parent="1" source="zfy4MKYNoHMl2_ynxrHI-2" target="zfy4MKYNoHMl2_ynxrHI-13">
          <mxGeometry relative="1" as="geometry" />
        </mxCell>
        <mxCell id="zfy4MKYNoHMl2_ynxrHI-2" value="PSK/QAM(符号映射)" style="rounded=0;whiteSpace=wrap;html=1;" vertex="1" parent="1">
          <mxGeometry x="455" y="645" width="120" height="60" as="geometry" />
        </mxCell>
        <mxCell id="zfy4MKYNoHMl2_ynxrHI-13" value="&lt;font style=&quot;font-size: 18px;&quot;&gt;串/并转换&lt;/font&gt;" style="rounded=0;whiteSpace=wrap;html=1;" vertex="1" parent="1">
          <mxGeometry x="640" y="495" width="90" height="360" as="geometry" />
        </mxCell>
        <mxCell id="zfy4MKYNoHMl2_ynxrHI-16" value="$$X_l[k]$$" style="text;html=1;align=center;verticalAlign=middle;resizable=0;points=[];autosize=1;strokeColor=none;fillColor=none;" vertex="1" parent="1">
          <mxGeometry x="565" y="615" width="80" height="30" as="geometry" />
        </mxCell>
        <mxCell id="zfy4MKYNoHMl2_ynxrHI-24" value="" style="endArrow=classic;html=1;rounded=0;entryX=0;entryY=0.5;entryDx=0;entryDy=0;" edge="1" parent="1">
          <mxGeometry width="50" height="50" relative="1" as="geometry">
            <mxPoint x="735" y="815" as="sourcePoint" />
            <mxPoint x="850" y="815" as="targetPoint" />
          </mxGeometry>
        </mxCell>
        <mxCell id="zfy4MKYNoHMl2_ynxrHI-25" value="" style="endArrow=classic;html=1;rounded=0;entryX=0;entryY=0.5;entryDx=0;entryDy=0;" edge="1" parent="1">
          <mxGeometry width="50" height="50" relative="1" as="geometry">
            <mxPoint x="735" y="615" as="sourcePoint" />
            <mxPoint x="850" y="615" as="targetPoint" />
          </mxGeometry>
        </mxCell>
        <mxCell id="zfy4MKYNoHMl2_ynxrHI-26" value="" style="endArrow=classic;html=1;rounded=0;entryX=0;entryY=0.5;entryDx=0;entryDy=0;exitX=0.996;exitY=0.111;exitDx=0;exitDy=0;exitPerimeter=0;" edge="1" parent="1" source="zfy4MKYNoHMl2_ynxrHI-13">
          <mxGeometry width="50" height="50" relative="1" as="geometry">
            <mxPoint x="740" y="535" as="sourcePoint" />
            <mxPoint x="850" y="535" as="targetPoint" />
          </mxGeometry>
        </mxCell>
        <mxCell id="zfy4MKYNoHMl2_ynxrHI-88" value="" style="edgeStyle=orthogonalEdgeStyle;rounded=0;orthogonalLoop=1;jettySize=auto;html=1;" edge="1" parent="1" source="zfy4MKYNoHMl2_ynxrHI-33" target="zfy4MKYNoHMl2_ynxrHI-87">
          <mxGeometry relative="1" as="geometry" />
        </mxCell>
        <mxCell id="zfy4MKYNoHMl2_ynxrHI-33" value="&lt;font style=&quot;font-size: 18px;&quot;&gt;IFFT&lt;/font&gt;" style="rounded=0;whiteSpace=wrap;html=1;" vertex="1" parent="1">
          <mxGeometry x="850" y="490" width="90" height="360" as="geometry" />
        </mxCell>
        <mxCell id="zfy4MKYNoHMl2_ynxrHI-34" value="&lt;font style=&quot;font-size: 18px;&quot;&gt;$$X_l[0]$$&lt;/font&gt;" style="text;html=1;align=center;verticalAlign=middle;resizable=0;points=[];autosize=1;strokeColor=none;fillColor=none;" vertex="1" parent="1">
          <mxGeometry x="735" y="490" width="110" height="40" as="geometry" />
        </mxCell>
        <mxCell id="zfy4MKYNoHMl2_ynxrHI-35" value="&lt;font style=&quot;font-size: 18px;&quot;&gt;$$X_l[1]$$&lt;/font&gt;" style="text;html=1;align=center;verticalAlign=middle;resizable=0;points=[];autosize=1;strokeColor=none;fillColor=none;" vertex="1" parent="1">
          <mxGeometry x="735" y="570" width="110" height="40" as="geometry" />
        </mxCell>
        <mxCell id="zfy4MKYNoHMl2_ynxrHI-36" value="&lt;font style=&quot;font-size: 18px;&quot;&gt;$$X_l[N-1]$$&lt;/font&gt;" style="text;html=1;align=center;verticalAlign=middle;resizable=0;points=[];autosize=1;strokeColor=none;fillColor=none;" vertex="1" parent="1">
          <mxGeometry x="725" y="770" width="130" height="40" as="geometry" />
        </mxCell>
        <mxCell id="zfy4MKYNoHMl2_ynxrHI-38" value="&lt;font style=&quot;font-size: 18px;&quot;&gt;信道&lt;/font&gt;" style="rounded=1;whiteSpace=wrap;html=1;" vertex="1" parent="1">
          <mxGeometry x="1170" y="640" width="120" height="60" as="geometry" />
        </mxCell>
        <mxCell id="zfy4MKYNoHMl2_ynxrHI-91" value="" style="edgeStyle=orthogonalEdgeStyle;rounded=0;orthogonalLoop=1;jettySize=auto;html=1;" edge="1" parent="1">
          <mxGeometry relative="1" as="geometry">
            <mxPoint x="1460" y="570" as="sourcePoint" />
            <mxPoint x="1550" y="570" as="targetPoint" />
          </mxGeometry>
        </mxCell>
        <mxCell id="zfy4MKYNoHMl2_ynxrHI-50" value="&lt;font style=&quot;font-size: 18px;&quot;&gt;串/并转换&lt;/font&gt;" style="rounded=0;whiteSpace=wrap;html=1;" vertex="1" parent="1">
          <mxGeometry x="1370" y="490" width="90" height="360" as="geometry" />
        </mxCell>
        <mxCell id="zfy4MKYNoHMl2_ynxrHI-93" value="" style="edgeStyle=orthogonalEdgeStyle;rounded=0;orthogonalLoop=1;jettySize=auto;html=1;" edge="1" parent="1" source="zfy4MKYNoHMl2_ynxrHI-84" target="zfy4MKYNoHMl2_ynxrHI-92">
          <mxGeometry relative="1" as="geometry" />
        </mxCell>
        <mxCell id="zfy4MKYNoHMl2_ynxrHI-84" value="&lt;font style=&quot;font-size: 18px;&quot;&gt;FFT&lt;/font&gt;" style="rounded=0;whiteSpace=wrap;html=1;" vertex="1" parent="1">
          <mxGeometry x="1550" y="490" width="90" height="360" as="geometry" />
        </mxCell>
        <mxCell id="zfy4MKYNoHMl2_ynxrHI-87" value="&lt;font style=&quot;font-size: 18px;&quot;&gt;并/串转换&lt;/font&gt;" style="rounded=0;whiteSpace=wrap;html=1;" vertex="1" parent="1">
          <mxGeometry x="1000" y="490" width="90" height="360" as="geometry" />
        </mxCell>
        <mxCell id="zfy4MKYNoHMl2_ynxrHI-89" value="" style="endArrow=classic;html=1;rounded=0;" edge="1" parent="1" source="zfy4MKYNoHMl2_ynxrHI-87" target="zfy4MKYNoHMl2_ynxrHI-38">
          <mxGeometry width="50" height="50" relative="1" as="geometry">
            <mxPoint x="1160" y="670" as="sourcePoint" />
            <mxPoint x="1210" y="620" as="targetPoint" />
          </mxGeometry>
        </mxCell>
        <mxCell id="zfy4MKYNoHMl2_ynxrHI-108" value="" style="edgeStyle=orthogonalEdgeStyle;rounded=0;orthogonalLoop=1;jettySize=auto;html=1;" edge="1" parent="1" source="zfy4MKYNoHMl2_ynxrHI-92" target="zfy4MKYNoHMl2_ynxrHI-107">
          <mxGeometry relative="1" as="geometry" />
        </mxCell>
        <mxCell id="zfy4MKYNoHMl2_ynxrHI-92" value="&lt;font style=&quot;font-size: 18px;&quot;&gt;并/串转换&lt;/font&gt;" style="rounded=0;whiteSpace=wrap;html=1;" vertex="1" parent="1">
          <mxGeometry x="1710" y="490" width="90" height="360" as="geometry" />
        </mxCell>
        <mxCell id="zfy4MKYNoHMl2_ynxrHI-94" value="" style="edgeStyle=orthogonalEdgeStyle;rounded=0;orthogonalLoop=1;jettySize=auto;html=1;" edge="1" parent="1">
          <mxGeometry relative="1" as="geometry">
            <mxPoint x="1460" y="530" as="sourcePoint" />
            <mxPoint x="1550" y="530" as="targetPoint" />
          </mxGeometry>
        </mxCell>
        <mxCell id="zfy4MKYNoHMl2_ynxrHI-95" value="" style="edgeStyle=orthogonalEdgeStyle;rounded=0;orthogonalLoop=1;jettySize=auto;html=1;" edge="1" parent="1">
          <mxGeometry relative="1" as="geometry">
            <mxPoint x="1460" y="800" as="sourcePoint" />
            <mxPoint x="1550" y="800" as="targetPoint" />
          </mxGeometry>
        </mxCell>
        <mxCell id="zfy4MKYNoHMl2_ynxrHI-96" value="" style="endArrow=classic;html=1;rounded=0;" edge="1" parent="1">
          <mxGeometry width="50" height="50" relative="1" as="geometry">
            <mxPoint x="1290" y="669.57" as="sourcePoint" />
            <mxPoint x="1370" y="669.57" as="targetPoint" />
          </mxGeometry>
        </mxCell>
        <mxCell id="zfy4MKYNoHMl2_ynxrHI-100" value="&lt;font style=&quot;font-size: 18px;&quot;&gt;$$x_l[0]$$&lt;/font&gt;" style="text;html=1;align=center;verticalAlign=middle;resizable=0;points=[];autosize=1;strokeColor=none;fillColor=none;" vertex="1" parent="1">
          <mxGeometry x="1445" y="485" width="110" height="40" as="geometry" />
        </mxCell>
        <mxCell id="zfy4MKYNoHMl2_ynxrHI-101" value="&lt;font style=&quot;font-size: 18px;&quot;&gt;$$x_l[1]$$&lt;/font&gt;" style="text;html=1;align=center;verticalAlign=middle;resizable=0;points=[];autosize=1;strokeColor=none;fillColor=none;" vertex="1" parent="1">
          <mxGeometry x="1445" y="535" width="110" height="40" as="geometry" />
        </mxCell>
        <mxCell id="zfy4MKYNoHMl2_ynxrHI-103" value="&lt;font style=&quot;font-size: 18px;&quot;&gt;$$x_l[N-1]$$&lt;/font&gt;" style="text;html=1;align=center;verticalAlign=middle;resizable=0;points=[];autosize=1;strokeColor=none;fillColor=none;" vertex="1" parent="1">
          <mxGeometry x="1440" y="765" width="130" height="40" as="geometry" />
        </mxCell>
        <mxCell id="zfy4MKYNoHMl2_ynxrHI-105" value="" style="endArrow=none;dashed=1;html=1;dashPattern=1 3;strokeWidth=2;rounded=0;" edge="1" parent="1">
          <mxGeometry width="50" height="50" relative="1" as="geometry">
            <mxPoint x="1499.52" y="732.5" as="sourcePoint" />
            <mxPoint x="1499.52" y="607.5" as="targetPoint" />
          </mxGeometry>
        </mxCell>
        <mxCell id="zfy4MKYNoHMl2_ynxrHI-111" value="" style="edgeStyle=orthogonalEdgeStyle;rounded=0;orthogonalLoop=1;jettySize=auto;html=1;" edge="1" parent="1" source="zfy4MKYNoHMl2_ynxrHI-107" target="zfy4MKYNoHMl2_ynxrHI-110">
          <mxGeometry relative="1" as="geometry" />
        </mxCell>
        <mxCell id="zfy4MKYNoHMl2_ynxrHI-107" value="&lt;font style=&quot;font-size: 18px;&quot;&gt;PSK/QAM(符号映射)&lt;/font&gt;" style="rounded=0;whiteSpace=wrap;html=1;" vertex="1" parent="1">
          <mxGeometry x="1880" y="640" width="120" height="60" as="geometry" />
        </mxCell>
        <mxCell id="zfy4MKYNoHMl2_ynxrHI-109" value="$$X_l[k]$$" style="text;html=1;align=center;verticalAlign=middle;resizable=0;points=[];autosize=1;strokeColor=none;fillColor=none;" vertex="1" parent="1">
          <mxGeometry x="1800" y="640" width="80" height="30" as="geometry" />
        </mxCell>
        <mxCell id="zfy4MKYNoHMl2_ynxrHI-110" value="&lt;font style=&quot;font-size: 18px;&quot;&gt;比特流(0,1)&lt;/font&gt;" style="rounded=0;whiteSpace=wrap;html=1;" vertex="1" parent="1">
          <mxGeometry x="2068" y="640" width="120" height="60" as="geometry" />
        </mxCell>
      </root>
    </mxGraphModel>
  </diagram>
</mxfile>
